<svg width="32" height="36" viewBox="0 0 32 36" fill="none" xmlns="http://www.w3.org/2000/svg">
<g filter="url(#filter0_d_0_23)">
<path fill-rule="evenodd" clip-rule="evenodd" d="M13.2843 9.46064L13.2994 12.5489H17.7303C18.5172 12.5489 19.155 11.909 19.1511 11.1221L19.15 10.8874C19.1461 10.1004 18.5022 9.46064 17.7151 9.46064H13.8909H13.2843ZM19.7134 17.2431L19.7121 16.9952C19.708 16.1174 18.9905 15.4047 18.1129 15.4047H17.7441H13.3133L13.3301 18.8338H18.1295C19.0072 18.8338 19.7177 18.1198 19.7134 17.2431ZM21.1197 13.7376C22.0015 14.55 22.5606 15.708 22.5669 16.9952L22.5681 17.2431C22.58 19.6938 20.5951 21.6884 18.1434 21.6884H18.035L18.0412 23H15.1867L15.1802 21.6884H14.0103L14.0167 23H11.1621L11.1557 21.6884H10.4893H9.0736L9.05967 18.8338H10.4754L10.4587 15.4047L10.4447 12.5489L10.4296 9.46064H9.01393L9 6.60495H11.0821L11.0743 5H13.9289L13.9367 6.60495H15.1068L15.0989 5H17.9536L17.9613 6.61839C20.2025 6.75437 21.9936 8.61403 22.0047 10.8874L22.0058 11.1221C22.0106 12.1072 21.6773 13.0127 21.1197 13.7376Z" fill="#494767"/>
<path d="M13.2843 9.46064V8.96064H12.7819L12.7843 9.46308L13.2843 9.46064ZM13.2994 12.5489L12.7994 12.5513L12.8018 13.0489H13.2994V12.5489ZM19.1511 11.1221L18.6511 11.1244L18.6511 11.1246L19.1511 11.1221ZM19.15 10.8874L19.65 10.8851L19.65 10.885L19.15 10.8874ZM19.7134 17.2431L20.2134 17.2407L20.2134 17.2406L19.7134 17.2431ZM19.7121 16.9952L19.2122 16.9976L19.2122 16.9977L19.7121 16.9952ZM13.3133 15.4047V14.9047H12.8109L12.8133 15.4071L13.3133 15.4047ZM13.3301 18.8338L12.8301 18.8362L12.8325 19.3338H13.3301V18.8338ZM21.1197 13.7376L20.7234 13.4327L20.4445 13.7953L20.7809 14.1053L21.1197 13.7376ZM22.5669 16.9952L22.0669 16.9976L22.0669 16.9977L22.5669 16.9952ZM22.5681 17.2431L23.0681 17.2407L23.0681 17.2406L22.5681 17.2431ZM18.035 21.6884V21.1884H17.5325L17.535 21.6907L18.035 21.6884ZM18.0412 23V23.5H18.5436L18.5412 22.9976L18.0412 23ZM15.1867 23L14.6867 23.0024L14.6891 23.5H15.1867V23ZM15.1802 21.6884L15.6802 21.6859L15.6778 21.1884H15.1802V21.6884ZM14.0103 21.6884V21.1884H13.5078L13.5103 21.6908L14.0103 21.6884ZM14.0167 23V23.5H14.5191L14.5167 22.9976L14.0167 23ZM11.1621 23L10.6621 23.0024L10.6645 23.5H11.1621V23ZM11.1557 21.6884L11.6557 21.6859L11.6532 21.1884H11.1557V21.6884ZM9.0736 21.6884L8.57361 21.6908L8.57604 22.1884H9.0736V21.6884ZM9.05967 18.8338V18.3338H8.55722L8.55968 18.8362L9.05967 18.8338ZM10.4754 18.8338V19.3338H10.9778L10.9754 18.8313L10.4754 18.8338ZM10.4587 15.4047L10.9587 15.4022L10.9587 15.4022L10.4587 15.4047ZM10.4447 12.5489L9.94468 12.5513L9.94468 12.5513L10.4447 12.5489ZM10.4296 9.46064L10.9296 9.45821L10.9272 8.96064H10.4296V9.46064ZM9.01393 9.46064L8.51394 9.46308L8.51636 9.96064H9.01393V9.46064ZM9 6.60495V6.10495H8.49755L8.50001 6.60739L9 6.60495ZM11.0821 6.60495V7.10495H11.5845L11.5821 6.60253L11.0821 6.60495ZM11.0743 5V4.5H10.5719L10.5743 5.00242L11.0743 5ZM13.9289 5L14.4289 4.99758L14.4265 4.5H13.9289V5ZM13.9367 6.60495L13.4367 6.60737L13.4391 7.10495H13.9367V6.60495ZM15.1068 6.60495V7.10495H15.6092L15.6068 6.60249L15.1068 6.60495ZM15.0989 5V4.5H14.5964L14.5989 5.00246L15.0989 5ZM17.9536 5L18.4536 4.9976L18.4512 4.5H17.9536V5ZM17.9613 6.61839L17.4614 6.62079L17.4636 7.0891L17.9311 7.11747L17.9613 6.61839ZM22.0047 10.8874L22.5047 10.8851L22.5047 10.885L22.0047 10.8874ZM22.0058 11.1221L21.5058 11.1244L21.5058 11.1245L22.0058 11.1221ZM12.7843 9.46308L12.7994 12.5513L13.7994 12.5464L13.7843 9.45821L12.7843 9.46308ZM13.2994 13.0489H17.7303V12.0489H13.2994V13.0489ZM17.7303 13.0489C18.7939 13.0489 19.6564 12.1841 19.6511 11.1195L18.6511 11.1246C18.6536 11.6339 18.2406 12.0489 17.7303 12.0489V13.0489ZM19.6511 11.1197L19.65 10.8851L18.65 10.8898L18.6511 11.1244L19.6511 11.1197ZM19.65 10.885C19.6448 9.82227 18.7769 8.96064 17.7151 8.96064V9.96064C18.2275 9.96064 18.6475 10.3785 18.65 10.8899L19.65 10.885ZM17.7151 8.96064H13.8909V9.96064H17.7151V8.96064ZM13.8909 8.96064H13.2843V9.96064H13.8909V8.96064ZM20.2134 17.2406L20.2121 16.9927L19.2122 16.9977L19.2134 17.2456L20.2134 17.2406ZM20.2121 16.9928C20.2066 15.8393 19.2653 14.9047 18.1129 14.9047V15.9047C18.7158 15.9047 19.2093 16.3955 19.2122 16.9976L20.2121 16.9928ZM18.1129 14.9047H17.7441V15.9047H18.1129V14.9047ZM17.7441 14.9047H13.3133V15.9047H17.7441V14.9047ZM12.8133 15.4071L12.8301 18.8362L13.8301 18.8313L13.8133 15.4022L12.8133 15.4071ZM13.3301 19.3338H18.1295V18.3338H13.3301V19.3338ZM18.1295 19.3338C19.2841 19.3338 20.2191 18.3947 20.2134 17.2407L19.2134 17.2456C19.2163 17.845 18.7303 18.3338 18.1295 18.3338V19.3338ZM20.7809 14.1053C21.5664 14.8291 22.0613 15.8571 22.0669 16.9976L23.0668 16.9927C23.0598 15.5588 22.4365 14.271 21.4585 13.3699L20.7809 14.1053ZM22.0669 16.9977L22.0681 17.2456L23.0681 17.2406L23.0668 16.9927L22.0669 16.9977ZM22.0681 17.2456C22.0787 19.4191 20.3181 21.1884 18.1434 21.1884V22.1884C20.8721 22.1884 23.0814 19.9686 23.0681 17.2407L22.0681 17.2456ZM18.1434 21.1884H18.035V22.1884H18.1434V21.1884ZM17.535 21.6907L17.5412 23.0024L18.5412 22.9976L18.5349 21.686L17.535 21.6907ZM18.0412 22.5H15.1867V23.5H18.0412V22.5ZM15.6867 22.9976L15.6802 21.6859L14.6803 21.6908L14.6867 23.0024L15.6867 22.9976ZM15.1802 21.1884H14.0103V22.1884H15.1802V21.1884ZM13.5103 21.6908L13.5167 23.0024L14.5167 22.9976L14.5102 21.6859L13.5103 21.6908ZM14.0167 22.5H11.1621V23.5H14.0167V22.5ZM11.6621 22.9976L11.6557 21.6859L10.6557 21.6908L10.6621 23.0024L11.6621 22.9976ZM11.1557 21.1884H10.4893V22.1884H11.1557V21.1884ZM10.4893 21.1884H9.0736V22.1884H10.4893V21.1884ZM9.5736 21.6859L9.55966 18.8313L8.55968 18.8362L8.57361 21.6908L9.5736 21.6859ZM9.05967 19.3338H10.4754V18.3338H9.05967V19.3338ZM10.9754 18.8313L10.9587 15.4022L9.95874 15.4071L9.97538 18.8362L10.9754 18.8313ZM10.9587 15.4022L10.9447 12.5464L9.94468 12.5513L9.95874 15.4071L10.9587 15.4022ZM10.9447 12.5464L10.9296 9.45821L9.92964 9.46308L9.94468 12.5513L10.9447 12.5464ZM10.4296 8.96064H9.01393V9.96064H10.4296V8.96064ZM9.51393 9.4582L9.49999 6.60251L8.50001 6.60739L8.51394 9.46308L9.51393 9.4582ZM9 7.10495H11.0821V6.10495H9V7.10495ZM11.5821 6.60253L11.5743 4.99758L10.5743 5.00242L10.5821 6.60737L11.5821 6.60253ZM11.0743 5.5H13.9289V4.5H11.0743V5.5ZM13.4289 5.00242L13.4367 6.60737L14.4366 6.60253L14.4289 4.99758L13.4289 5.00242ZM13.9367 7.10495H15.1068V6.10495H13.9367V7.10495ZM15.6068 6.60249L15.5989 4.99754L14.5989 5.00246L14.6068 6.60741L15.6068 6.60249ZM15.0989 5.5H17.9536V4.5H15.0989V5.5ZM17.4536 5.0024L17.4614 6.62079L18.4613 6.61599L18.4536 4.9976L17.4536 5.0024ZM17.9311 7.11747C19.9122 7.23768 21.4949 8.88289 21.5047 10.8899L22.5047 10.885C22.4923 8.34517 20.4927 6.27106 17.9916 6.1193L17.9311 7.11747ZM21.5047 10.8898L21.5058 11.1244L22.5058 11.1197L22.5047 10.8851L21.5047 10.8898ZM21.5058 11.1245C21.51 11.993 21.2167 12.7914 20.7234 13.4327L21.516 14.0424C22.1379 13.2339 22.5111 12.2215 22.5058 11.1196L21.5058 11.1245Z" fill="#494767"/>
</g>
<defs>
<filter id="filter0_d_0_23" x="0.497559" y="0.5" width="30.5706" height="35" filterUnits="userSpaceOnUse" color-interpolation-filters="sRGB">
<feFlood flood-opacity="0" result="BackgroundImageFix"/>
<feColorMatrix in="SourceAlpha" type="matrix" values="0 0 0 0 0 0 0 0 0 0 0 0 0 0 0 0 0 0 127 0" result="hardAlpha"/>
<feOffset dy="4"/>
<feGaussianBlur stdDeviation="4"/>
<feColorMatrix type="matrix" values="0 0 0 0 0 0 0 0 0 0 0 0 0 0 0 0 0 0 0.0744452 0"/>
<feBlend mode="normal" in2="BackgroundImageFix" result="effect1_dropShadow_0_23"/>
<feBlend mode="normal" in="SourceGraphic" in2="effect1_dropShadow_0_23" result="shape"/>
</filter>
</defs>
</svg>
