<svg width="52" height="13" viewBox="0 0 52 13" fill="none" xmlns="http://www.w3.org/2000/svg">
<path d="M16.674 7.843V5.434H15.926V7.843H13.528V8.591H15.926V11H16.674V8.591H19.072V7.843H16.674ZM23.5117 11V3.201H22.7967C22.7454 3.49433 22.65 3.73633 22.5107 3.927C22.3714 4.11767 22.199 4.268 21.9937 4.378C21.7957 4.488 21.572 4.565 21.3227 4.609C21.0734 4.64567 20.8167 4.664 20.5527 4.664V5.412H22.5767V11H23.5117ZM26.192 5.962H27.127C27.1197 5.72733 27.1417 5.49633 27.193 5.269C27.2517 5.03433 27.3433 4.82533 27.468 4.642C27.5927 4.45867 27.7503 4.312 27.941 4.202C28.139 4.08467 28.3737 4.026 28.645 4.026C28.8503 4.026 29.0447 4.059 29.228 4.125C29.4113 4.191 29.569 4.28633 29.701 4.411C29.8403 4.53567 29.9503 4.686 30.031 4.862C30.1117 5.03067 30.152 5.22133 30.152 5.434C30.152 5.70533 30.108 5.94367 30.02 6.149C29.9393 6.35433 29.8147 6.545 29.646 6.721C29.4847 6.897 29.2793 7.073 29.03 7.249C28.7807 7.41767 28.491 7.60467 28.161 7.81C27.8897 7.97133 27.6293 8.14367 27.38 8.327C27.1307 8.51033 26.907 8.723 26.709 8.965C26.511 9.207 26.346 9.493 26.214 9.823C26.0893 10.1457 26.0087 10.538 25.972 11H31.065V10.175H27.061C27.105 9.933 27.1967 9.72033 27.336 9.537C27.4827 9.34633 27.655 9.17033 27.853 9.009C28.0583 8.84767 28.282 8.69733 28.524 8.558C28.766 8.41133 29.008 8.26467 29.25 8.118C29.492 7.964 29.7267 7.80267 29.954 7.634C30.1813 7.46533 30.383 7.27833 30.559 7.073C30.735 6.86033 30.8743 6.622 30.977 6.358C31.087 6.094 31.142 5.78967 31.142 5.445C31.142 5.07833 31.076 4.75567 30.944 4.477C30.8193 4.19833 30.647 3.96733 30.427 3.784C30.207 3.59333 29.9467 3.45033 29.646 3.355C29.3527 3.25233 29.0373 3.201 28.7 3.201C28.2893 3.201 27.9227 3.27067 27.6 3.41C27.2773 3.54933 27.006 3.74367 26.786 3.993C26.5733 4.235 26.4157 4.52467 26.313 4.862C26.2103 5.19933 26.17 5.566 26.192 5.962ZM32.7333 9.779V11H33.3823C33.3896 11.088 33.3823 11.1833 33.3603 11.286C33.3456 11.3887 33.3126 11.4877 33.2613 11.583C33.21 11.6857 33.1403 11.7773 33.0523 11.858C32.9716 11.946 32.869 12.012 32.7443 12.056V12.606C33.1696 12.4813 33.4776 12.2687 33.6683 11.968C33.859 11.6673 33.9543 11.308 33.9543 10.89V9.779H32.7333ZM40.0518 4.158V3.333H36.2018L35.4758 7.381L36.2788 7.425C36.4622 7.205 36.6712 7.029 36.9058 6.897C37.1478 6.75767 37.4228 6.688 37.7308 6.688C37.9948 6.688 38.2332 6.732 38.4458 6.82C38.6658 6.908 38.8528 7.03267 39.0068 7.194C39.1608 7.348 39.2782 7.535 39.3588 7.755C39.4468 7.96767 39.4908 8.20233 39.4908 8.459C39.4908 8.767 39.4468 9.03833 39.3588 9.273C39.2708 9.50033 39.1498 9.691 38.9958 9.845C38.8492 9.999 38.6732 10.1163 38.4678 10.197C38.2698 10.2703 38.0608 10.307 37.8408 10.307C37.6062 10.307 37.3898 10.274 37.1918 10.208C37.0012 10.1347 36.8325 10.0357 36.6858 9.911C36.5465 9.779 36.4328 9.62867 36.3448 9.46C36.2642 9.284 36.2165 9.097 36.2018 8.899H35.2668C35.2742 9.251 35.3438 9.56633 35.4758 9.845C35.6078 10.1237 35.7875 10.3583 36.0148 10.549C36.2422 10.7323 36.5025 10.8753 36.7958 10.978C37.0965 11.0733 37.4155 11.121 37.7528 11.121C38.2075 11.121 38.6035 11.0513 38.9408 10.912C39.2855 10.7653 39.5715 10.571 39.7988 10.329C40.0262 10.087 40.1948 9.812 40.3048 9.504C40.4222 9.18867 40.4808 8.866 40.4808 8.536C40.4808 8.08867 40.4148 7.7 40.2828 7.37C40.1508 7.03267 39.9712 6.754 39.7438 6.534C39.5165 6.30667 39.2488 6.138 38.9408 6.028C38.6328 5.918 38.3065 5.863 37.9618 5.863C37.6978 5.863 37.4302 5.91067 37.1588 6.006C36.8948 6.094 36.6785 6.23333 36.5098 6.424L36.4878 6.402L36.9058 4.158H40.0518ZM42.8311 5.412C42.8311 5.24333 42.8421 5.06733 42.8641 4.884C42.8861 4.69333 42.9301 4.521 42.9961 4.367C43.0695 4.20567 43.1685 4.07367 43.2931 3.971C43.4178 3.861 43.5828 3.806 43.7881 3.806C44.0008 3.806 44.1658 3.861 44.2831 3.971C44.4078 4.07367 44.5031 4.20567 44.5691 4.367C44.6351 4.521 44.6755 4.69333 44.6901 4.884C44.7121 5.06733 44.7231 5.23967 44.7231 5.401C44.7231 5.56967 44.7121 5.74933 44.6901 5.94C44.6681 6.13067 44.6205 6.30667 44.5471 6.468C44.4811 6.622 44.3858 6.75033 44.2611 6.853C44.1365 6.95567 43.9678 7.007 43.7551 7.007C43.5498 7.007 43.3848 6.95567 43.2601 6.853C43.1428 6.743 43.0511 6.611 42.9851 6.457C42.9191 6.29567 42.8751 6.12333 42.8531 5.94C42.8385 5.74933 42.8311 5.57333 42.8311 5.412ZM42.0061 5.434C42.0061 5.73467 42.0355 6.017 42.0941 6.281C42.1601 6.545 42.2628 6.776 42.4021 6.974C42.5415 7.172 42.7248 7.32967 42.9521 7.447C43.1795 7.557 43.4581 7.612 43.7881 7.612C44.1108 7.612 44.3821 7.54967 44.6021 7.425C44.8221 7.30033 45.0018 7.139 45.1411 6.941C45.2878 6.73567 45.3905 6.501 45.4491 6.237C45.5151 5.96567 45.5481 5.687 45.5481 5.401C45.5481 5.10033 45.5188 4.818 45.4601 4.554C45.4088 4.28267 45.3135 4.048 45.1741 3.85C45.0421 3.652 44.8625 3.49433 44.6351 3.377C44.4151 3.25967 44.1328 3.201 43.7881 3.201C43.4508 3.201 43.1685 3.26333 42.9411 3.388C42.7138 3.50533 42.5305 3.66667 42.3911 3.872C42.2518 4.07733 42.1528 4.31567 42.0941 4.587C42.0355 4.851 42.0061 5.13333 42.0061 5.434ZM48.2651 8.932C48.2651 8.76333 48.2761 8.58733 48.2981 8.404C48.3201 8.21333 48.3641 8.041 48.4301 7.887C48.5035 7.72567 48.6025 7.59367 48.7271 7.491C48.8518 7.381 49.0168 7.326 49.2221 7.326C49.4348 7.326 49.5998 7.381 49.7171 7.491C49.8418 7.59367 49.9371 7.72567 50.0031 7.887C50.0691 8.041 50.1095 8.21333 50.1241 8.404C50.1461 8.58733 50.1571 8.75967 50.1571 8.921C50.1571 9.08967 50.1461 9.26933 50.1241 9.46C50.1021 9.65067 50.0545 9.82667 49.9811 9.988C49.9151 10.142 49.8198 10.2703 49.6951 10.373C49.5705 10.4757 49.4018 10.527 49.1891 10.527C48.9838 10.527 48.8188 10.4757 48.6941 10.373C48.5768 10.263 48.4851 10.131 48.4191 9.977C48.3531 9.81567 48.3091 9.64333 48.2871 9.46C48.2725 9.26933 48.2651 9.09333 48.2651 8.932ZM47.4401 8.954C47.4401 9.25467 47.4695 9.537 47.5281 9.801C47.5941 10.065 47.6968 10.296 47.8361 10.494C47.9755 10.6847 48.1588 10.8387 48.3861 10.956C48.6135 11.066 48.8921 11.121 49.2221 11.121C49.5448 11.121 49.8161 11.0623 50.0361 10.945C50.2561 10.8203 50.4358 10.659 50.5751 10.461C50.7218 10.2557 50.8245 10.021 50.8831 9.757C50.9491 9.48567 50.9821 9.207 50.9821 8.921C50.9821 8.62033 50.9528 8.338 50.8941 8.074C50.8428 7.80267 50.7475 7.568 50.6081 7.37C50.4761 7.172 50.2965 7.01433 50.0691 6.897C49.8491 6.77967 49.5668 6.721 49.2221 6.721C48.8848 6.721 48.6025 6.78333 48.3751 6.908C48.1478 7.02533 47.9645 7.18667 47.8251 7.392C47.6858 7.59733 47.5868 7.83567 47.5281 8.107C47.4695 8.371 47.4401 8.65333 47.4401 8.954ZM48.9801 3.058L43.0621 11.231H44.0081L49.9151 3.058H48.9801Z" fill="white"/>
<path d="M3.60609 6.60609L2.69695 7.51523C2.36222 7.84996 1.81951 7.84996 1.48477 7.51523C1.15004 7.18049 1.15004 6.63778 1.48477 6.30305L2.39391 5.39391L0 3H6V9L3.60609 6.60609Z" fill="white"/>
</svg>
