<svg width="50" height="13" viewBox="0 0 50 13" fill="none" xmlns="http://www.w3.org/2000/svg">
<path d="M13.55 7.502V8.382H16.729V7.502H13.55ZM22.4454 4.158V3.333H18.5954L17.8694 7.381L18.6724 7.425C18.8557 7.205 19.0647 7.029 19.2994 6.897C19.5414 6.75767 19.8164 6.688 20.1244 6.688C20.3884 6.688 20.6267 6.732 20.8394 6.82C21.0594 6.908 21.2464 7.03267 21.4004 7.194C21.5544 7.348 21.6717 7.535 21.7524 7.755C21.8404 7.96767 21.8844 8.20233 21.8844 8.459C21.8844 8.767 21.8404 9.03833 21.7524 9.273C21.6644 9.50033 21.5434 9.691 21.3894 9.845C21.2427 9.999 21.0667 10.1163 20.8614 10.197C20.6634 10.2703 20.4544 10.307 20.2344 10.307C19.9997 10.307 19.7834 10.274 19.5854 10.208C19.3947 10.1347 19.2261 10.0357 19.0794 9.911C18.9401 9.779 18.8264 9.62867 18.7384 9.46C18.6577 9.284 18.6101 9.097 18.5954 8.899H17.6604C17.6677 9.251 17.7374 9.56633 17.8694 9.845C18.0014 10.1237 18.1811 10.3583 18.4084 10.549C18.6357 10.7323 18.8961 10.8753 19.1894 10.978C19.4901 11.0733 19.8091 11.121 20.1464 11.121C20.6011 11.121 20.9971 11.0513 21.3344 10.912C21.6791 10.7653 21.9651 10.571 22.1924 10.329C22.4197 10.087 22.5884 9.812 22.6984 9.504C22.8157 9.18867 22.8744 8.866 22.8744 8.536C22.8744 8.08867 22.8084 7.7 22.6764 7.37C22.5444 7.03267 22.3647 6.754 22.1374 6.534C21.9101 6.30667 21.6424 6.138 21.3344 6.028C21.0264 5.918 20.7001 5.863 20.3554 5.863C20.0914 5.863 19.8237 5.91067 19.5524 6.006C19.2884 6.094 19.0721 6.23333 18.9034 6.424L18.8814 6.402L19.2994 4.158H22.4454ZM24.3007 9.779V11H25.5217V9.779H24.3007ZM26.9332 5.962H27.8682C27.8609 5.72733 27.8829 5.49633 27.9342 5.269C27.9929 5.03433 28.0846 4.82533 28.2092 4.642C28.3339 4.45867 28.4916 4.312 28.6822 4.202C28.8802 4.08467 29.1149 4.026 29.3862 4.026C29.5916 4.026 29.7859 4.059 29.9692 4.125C30.1526 4.191 30.3102 4.28633 30.4422 4.411C30.5816 4.53567 30.6916 4.686 30.7722 4.862C30.8529 5.03067 30.8932 5.22133 30.8932 5.434C30.8932 5.70533 30.8492 5.94367 30.7612 6.149C30.6806 6.35433 30.5559 6.545 30.3872 6.721C30.2259 6.897 30.0206 7.073 29.7712 7.249C29.5219 7.41767 29.2322 7.60467 28.9022 7.81C28.6309 7.97133 28.3706 8.14367 28.1212 8.327C27.8719 8.51033 27.6482 8.723 27.4502 8.965C27.2522 9.207 27.0872 9.493 26.9552 9.823C26.8306 10.1457 26.7499 10.538 26.7132 11H31.8062V10.175H27.8022C27.8462 9.933 27.9379 9.72033 28.0772 9.537C28.2239 9.34633 28.3962 9.17033 28.5942 9.009C28.7996 8.84767 29.0232 8.69733 29.2652 8.558C29.5072 8.41133 29.7492 8.26467 29.9912 8.118C30.2332 7.964 30.4679 7.80267 30.6952 7.634C30.9226 7.46533 31.1242 7.27833 31.3002 7.073C31.4762 6.86033 31.6156 6.622 31.7182 6.358C31.8282 6.094 31.8832 5.78967 31.8832 5.445C31.8832 5.07833 31.8172 4.75567 31.6852 4.477C31.5606 4.19833 31.3882 3.96733 31.1682 3.784C30.9482 3.59333 30.6879 3.45033 30.3872 3.355C30.0939 3.25233 29.7786 3.201 29.4412 3.201C29.0306 3.201 28.6639 3.27067 28.3412 3.41C28.0186 3.54933 27.7472 3.74367 27.5272 3.993C27.3146 4.235 27.1569 4.52467 27.0542 4.862C26.9516 5.19933 26.9112 5.566 26.9332 5.962ZM34.9595 6.545V7.337C35.1355 7.315 35.3225 7.304 35.5205 7.304C35.7552 7.304 35.9715 7.337 36.1695 7.403C36.3749 7.46167 36.5509 7.557 36.6975 7.689C36.8442 7.81367 36.9615 7.97133 37.0495 8.162C37.1375 8.34533 37.1815 8.558 37.1815 8.8C37.1815 9.03467 37.1339 9.24733 37.0385 9.438C36.9505 9.62133 36.8295 9.779 36.6755 9.911C36.5215 10.0357 36.3419 10.1347 36.1365 10.208C35.9312 10.274 35.7149 10.307 35.4875 10.307C34.9522 10.307 34.5452 10.1493 34.2665 9.834C33.9879 9.51133 33.8412 9.097 33.8265 8.591H32.8915C32.8842 8.99433 32.9392 9.35367 33.0565 9.669C33.1812 9.98433 33.3572 10.252 33.5845 10.472C33.8119 10.6847 34.0869 10.846 34.4095 10.956C34.7322 11.066 35.0915 11.121 35.4875 11.121C35.8542 11.121 36.1989 11.0733 36.5215 10.978C36.8515 10.8753 37.1375 10.725 37.3795 10.527C37.6215 10.329 37.8122 10.0833 37.9515 9.79C38.0982 9.48933 38.1715 9.14467 38.1715 8.756C38.1715 8.28667 38.0542 7.87967 37.8195 7.535C37.5922 7.19033 37.2402 6.96667 36.7635 6.864V6.842C37.0715 6.70267 37.3282 6.49733 37.5335 6.226C37.7389 5.95467 37.8415 5.643 37.8415 5.291C37.8415 4.93167 37.7792 4.62 37.6545 4.356C37.5372 4.092 37.3722 3.87567 37.1595 3.707C36.9469 3.53833 36.6939 3.41367 36.4005 3.333C36.1145 3.245 35.8029 3.201 35.4655 3.201C35.0769 3.201 34.7322 3.26333 34.4315 3.388C34.1382 3.51267 33.8925 3.685 33.6945 3.905C33.4965 4.125 33.3425 4.389 33.2325 4.697C33.1299 5.005 33.0712 5.346 33.0565 5.72H33.9915C33.9915 5.49267 34.0209 5.27633 34.0795 5.071C34.1382 4.86567 34.2262 4.686 34.3435 4.532C34.4682 4.378 34.6222 4.257 34.8055 4.169C34.9962 4.07367 35.2162 4.026 35.4655 4.026C35.8615 4.026 36.1915 4.13233 36.4555 4.345C36.7195 4.55033 36.8515 4.862 36.8515 5.28C36.8515 5.48533 36.8112 5.66867 36.7305 5.83C36.6499 5.99133 36.5399 6.127 36.4005 6.237C36.2685 6.33967 36.1109 6.42033 35.9275 6.479C35.7515 6.53033 35.5645 6.556 35.3665 6.556H35.1685C35.1319 6.556 35.0952 6.556 35.0585 6.556C35.0292 6.556 34.9962 6.55233 34.9595 6.545ZM40.5108 5.412C40.5108 5.24333 40.5218 5.06733 40.5438 4.884C40.5658 4.69333 40.6098 4.521 40.6758 4.367C40.7492 4.20567 40.8482 4.07367 40.9728 3.971C41.0975 3.861 41.2625 3.806 41.4678 3.806C41.6805 3.806 41.8455 3.861 41.9628 3.971C42.0875 4.07367 42.1828 4.20567 42.2488 4.367C42.3148 4.521 42.3552 4.69333 42.3698 4.884C42.3918 5.06733 42.4028 5.23967 42.4028 5.401C42.4028 5.56967 42.3918 5.74933 42.3698 5.94C42.3478 6.13067 42.3002 6.30667 42.2268 6.468C42.1608 6.622 42.0655 6.75033 41.9408 6.853C41.8162 6.95567 41.6475 7.007 41.4348 7.007C41.2295 7.007 41.0645 6.95567 40.9398 6.853C40.8225 6.743 40.7308 6.611 40.6648 6.457C40.5988 6.29567 40.5548 6.12333 40.5328 5.94C40.5182 5.74933 40.5108 5.57333 40.5108 5.412ZM39.6858 5.434C39.6858 5.73467 39.7152 6.017 39.7738 6.281C39.8398 6.545 39.9425 6.776 40.0818 6.974C40.2212 7.172 40.4045 7.32967 40.6318 7.447C40.8592 7.557 41.1378 7.612 41.4678 7.612C41.7905 7.612 42.0618 7.54967 42.2818 7.425C42.5018 7.30033 42.6815 7.139 42.8208 6.941C42.9675 6.73567 43.0702 6.501 43.1288 6.237C43.1948 5.96567 43.2278 5.687 43.2278 5.401C43.2278 5.10033 43.1985 4.818 43.1398 4.554C43.0885 4.28267 42.9932 4.048 42.8538 3.85C42.7218 3.652 42.5422 3.49433 42.3148 3.377C42.0948 3.25967 41.8125 3.201 41.4678 3.201C41.1305 3.201 40.8482 3.26333 40.6208 3.388C40.3935 3.50533 40.2102 3.66667 40.0708 3.872C39.9315 4.07733 39.8325 4.31567 39.7738 4.587C39.7152 4.851 39.6858 5.13333 39.6858 5.434ZM45.9448 8.932C45.9448 8.76333 45.9558 8.58733 45.9778 8.404C45.9998 8.21333 46.0438 8.041 46.1098 7.887C46.1832 7.72567 46.2822 7.59367 46.4068 7.491C46.5315 7.381 46.6965 7.326 46.9018 7.326C47.1145 7.326 47.2795 7.381 47.3968 7.491C47.5215 7.59367 47.6168 7.72567 47.6828 7.887C47.7488 8.041 47.7892 8.21333 47.8038 8.404C47.8258 8.58733 47.8368 8.75967 47.8368 8.921C47.8368 9.08967 47.8258 9.26933 47.8038 9.46C47.7818 9.65067 47.7342 9.82667 47.6608 9.988C47.5948 10.142 47.4995 10.2703 47.3748 10.373C47.2502 10.4757 47.0815 10.527 46.8688 10.527C46.6635 10.527 46.4985 10.4757 46.3738 10.373C46.2565 10.263 46.1648 10.131 46.0988 9.977C46.0328 9.81567 45.9888 9.64333 45.9668 9.46C45.9522 9.26933 45.9448 9.09333 45.9448 8.932ZM45.1198 8.954C45.1198 9.25467 45.1492 9.537 45.2078 9.801C45.2738 10.065 45.3765 10.296 45.5158 10.494C45.6552 10.6847 45.8385 10.8387 46.0658 10.956C46.2932 11.066 46.5718 11.121 46.9018 11.121C47.2245 11.121 47.4958 11.0623 47.7158 10.945C47.9358 10.8203 48.1155 10.659 48.2548 10.461C48.4015 10.2557 48.5042 10.021 48.5628 9.757C48.6288 9.48567 48.6618 9.207 48.6618 8.921C48.6618 8.62033 48.6325 8.338 48.5738 8.074C48.5225 7.80267 48.4272 7.568 48.2878 7.37C48.1558 7.172 47.9762 7.01433 47.7488 6.897C47.5288 6.77967 47.2465 6.721 46.9018 6.721C46.5645 6.721 46.2822 6.78333 46.0548 6.908C45.8275 7.02533 45.6442 7.18667 45.5048 7.392C45.3655 7.59733 45.2665 7.83567 45.2078 8.107C45.1492 8.371 45.1198 8.65333 45.1198 8.954ZM46.6598 3.058L40.7418 11.231H41.6878L47.5948 3.058H46.6598Z" fill="#E3507A"/>
<path d="M3.60609 5.39391L2.69695 4.48477C2.36222 4.15004 1.81951 4.15004 1.48477 4.48477C1.15004 4.81951 1.15004 5.36222 1.48477 5.69695L2.39391 6.60609L0 9H6V3L3.60609 5.39391Z" fill="#E3507A"/>
</svg>
