<svg width="58" height="13" viewBox="0 0 58 13" fill="none" xmlns="http://www.w3.org/2000/svg">
<path d="M15.674 7.843V5.434H14.926V7.843H12.528V8.591H14.926V11H15.674V8.591H18.072V7.843H15.674ZM20.9937 6.545V7.337C21.1697 7.315 21.3567 7.304 21.5547 7.304C21.7894 7.304 22.0057 7.337 22.2037 7.403C22.409 7.46167 22.585 7.557 22.7317 7.689C22.8784 7.81367 22.9957 7.97133 23.0837 8.162C23.1717 8.34533 23.2157 8.558 23.2157 8.8C23.2157 9.03467 23.168 9.24733 23.0727 9.438C22.9847 9.62133 22.8637 9.779 22.7097 9.911C22.5557 10.0357 22.376 10.1347 22.1707 10.208C21.9654 10.274 21.749 10.307 21.5217 10.307C20.9864 10.307 20.5794 10.1493 20.3007 9.834C20.022 9.51133 19.8754 9.097 19.8607 8.591H18.9257C18.9184 8.99433 18.9734 9.35367 19.0907 9.669C19.2154 9.98433 19.3914 10.252 19.6187 10.472C19.846 10.6847 20.121 10.846 20.4437 10.956C20.7664 11.066 21.1257 11.121 21.5217 11.121C21.8884 11.121 22.233 11.0733 22.5557 10.978C22.8857 10.8753 23.1717 10.725 23.4137 10.527C23.6557 10.329 23.8464 10.0833 23.9857 9.79C24.1324 9.48933 24.2057 9.14467 24.2057 8.756C24.2057 8.28667 24.0884 7.87967 23.8537 7.535C23.6264 7.19033 23.2744 6.96667 22.7977 6.864V6.842C23.1057 6.70267 23.3624 6.49733 23.5677 6.226C23.773 5.95467 23.8757 5.643 23.8757 5.291C23.8757 4.93167 23.8134 4.62 23.6887 4.356C23.5714 4.092 23.4064 3.87567 23.1937 3.707C22.981 3.53833 22.728 3.41367 22.4347 3.333C22.1487 3.245 21.837 3.201 21.4997 3.201C21.111 3.201 20.7664 3.26333 20.4657 3.388C20.1724 3.51267 19.9267 3.685 19.7287 3.905C19.5307 4.125 19.3767 4.389 19.2667 4.697C19.164 5.005 19.1054 5.346 19.0907 5.72H20.0257C20.0257 5.49267 20.055 5.27633 20.1137 5.071C20.1724 4.86567 20.2604 4.686 20.3777 4.532C20.5024 4.378 20.6564 4.257 20.8397 4.169C21.0304 4.07367 21.2504 4.026 21.4997 4.026C21.8957 4.026 22.2257 4.13233 22.4897 4.345C22.7537 4.55033 22.8857 4.862 22.8857 5.28C22.8857 5.48533 22.8454 5.66867 22.7647 5.83C22.684 5.99133 22.574 6.127 22.4347 6.237C22.3027 6.33967 22.145 6.42033 21.9617 6.479C21.7857 6.53033 21.5987 6.556 21.4007 6.556H21.2027C21.166 6.556 21.1294 6.556 21.0927 6.556C21.0634 6.556 21.0304 6.55233 20.9937 6.545ZM26.182 9.119H25.247C25.3057 9.79367 25.5513 10.296 25.984 10.626C26.4167 10.956 26.9593 11.121 27.612 11.121C28.558 11.121 29.2437 10.7617 29.669 10.043C30.1017 9.317 30.318 8.27933 30.318 6.93C30.318 6.18933 30.2447 5.58067 30.098 5.104C29.9587 4.62 29.768 4.23867 29.526 3.96C29.284 3.68133 29.0017 3.487 28.679 3.377C28.3563 3.25967 28.0117 3.201 27.645 3.201C27.271 3.201 26.9263 3.26333 26.611 3.388C26.2957 3.51267 26.0243 3.68867 25.797 3.916C25.5697 4.136 25.3937 4.40367 25.269 4.719C25.1443 5.027 25.082 5.368 25.082 5.742C25.082 6.12333 25.1333 6.47533 25.236 6.798C25.346 7.12067 25.5037 7.39567 25.709 7.623C25.9217 7.85033 26.182 8.03 26.49 8.162C26.798 8.28667 27.15 8.349 27.546 8.349C27.9273 8.349 28.2793 8.25367 28.602 8.063C28.9247 7.865 29.174 7.601 29.35 7.271L29.372 7.293C29.3427 8.31233 29.185 9.07133 28.899 9.57C28.613 10.0613 28.184 10.307 27.612 10.307C27.238 10.307 26.9153 10.2043 26.644 9.999C26.3727 9.79367 26.2187 9.50033 26.182 9.119ZM29.207 5.808C29.207 6.03533 29.1703 6.25533 29.097 6.468C29.0237 6.67333 28.9173 6.85667 28.778 7.018C28.6387 7.172 28.47 7.29667 28.272 7.392C28.074 7.48 27.854 7.524 27.612 7.524C27.3847 7.524 27.1757 7.48 26.985 7.392C26.8017 7.29667 26.6403 7.172 26.501 7.018C26.369 6.864 26.2627 6.688 26.182 6.49C26.1087 6.292 26.072 6.08667 26.072 5.874C26.072 5.632 26.0977 5.401 26.149 5.181C26.2077 4.961 26.2957 4.76667 26.413 4.598C26.5377 4.422 26.6953 4.28267 26.886 4.18C27.084 4.07733 27.3223 4.026 27.601 4.026C27.865 4.026 28.096 4.07367 28.294 4.169C28.492 4.26433 28.657 4.39633 28.789 4.565C28.9283 4.72633 29.031 4.91333 29.097 5.126C29.1703 5.33867 29.207 5.566 29.207 5.808ZM31.7333 9.779V11H32.9543V9.779H31.7333ZM38.4358 5.192H39.3708C39.3122 4.54667 39.0922 4.05533 38.7108 3.718C38.3295 3.37333 37.8162 3.201 37.1708 3.201C36.6135 3.201 36.1515 3.31833 35.7848 3.553C35.4182 3.78767 35.1248 4.09933 34.9048 4.488C34.6848 4.87667 34.5272 5.324 34.4318 5.83C34.3438 6.32867 34.2998 6.84567 34.2998 7.381C34.2998 7.79167 34.3292 8.217 34.3878 8.657C34.4538 9.097 34.5822 9.50033 34.7728 9.867C34.9635 10.2337 35.2348 10.5343 35.5868 10.769C35.9388 11.0037 36.4045 11.121 36.9838 11.121C37.4752 11.121 37.8858 11.0403 38.2158 10.879C38.5532 10.7103 38.8208 10.5013 39.0188 10.252C39.2242 9.99533 39.3708 9.713 39.4588 9.405C39.5468 9.097 39.5908 8.8 39.5908 8.514C39.5908 8.15467 39.5358 7.821 39.4258 7.513C39.3158 7.205 39.1582 6.93733 38.9528 6.71C38.7548 6.48267 38.5055 6.30667 38.2048 6.182C37.9115 6.05 37.5778 5.984 37.2038 5.984C36.7785 5.984 36.4008 6.06467 36.0708 6.226C35.7482 6.38733 35.4768 6.64767 35.2568 7.007L35.2348 6.985C35.2422 6.68433 35.2715 6.36167 35.3228 6.017C35.3742 5.67233 35.4658 5.35333 35.5978 5.06C35.7372 4.75933 35.9278 4.51367 36.1698 4.323C36.4118 4.125 36.7308 4.026 37.1268 4.026C37.5008 4.026 37.8015 4.13233 38.0288 4.345C38.2562 4.55767 38.3918 4.84 38.4358 5.192ZM37.0278 6.809C37.2918 6.809 37.5228 6.85667 37.7208 6.952C37.9188 7.04733 38.0838 7.17567 38.2158 7.337C38.3478 7.491 38.4432 7.678 38.5018 7.898C38.5678 8.11067 38.6008 8.338 38.6008 8.58C38.6008 8.80733 38.5642 9.02733 38.4908 9.24C38.4248 9.44533 38.3258 9.62867 38.1938 9.79C38.0618 9.95133 37.8968 10.0797 37.6988 10.175C37.5082 10.263 37.2845 10.307 37.0278 10.307C36.7712 10.307 36.5402 10.263 36.3348 10.175C36.1368 10.0797 35.9682 9.955 35.8288 9.801C35.6968 9.647 35.5942 9.46367 35.5208 9.251C35.4475 9.03833 35.4108 8.811 35.4108 8.569C35.4108 8.327 35.4438 8.09967 35.5098 7.887C35.5832 7.667 35.6895 7.48 35.8288 7.326C35.9682 7.16467 36.1368 7.04 36.3348 6.952C36.5328 6.85667 36.7638 6.809 37.0278 6.809ZM41.4681 9.119H40.5331C40.5918 9.79367 40.8375 10.296 41.2701 10.626C41.7028 10.956 42.2455 11.121 42.8981 11.121C43.8441 11.121 44.5298 10.7617 44.9551 10.043C45.3878 9.317 45.6041 8.27933 45.6041 6.93C45.6041 6.18933 45.5308 5.58067 45.3841 5.104C45.2448 4.62 45.0541 4.23867 44.8121 3.96C44.5701 3.68133 44.2878 3.487 43.9651 3.377C43.6425 3.25967 43.2978 3.201 42.9311 3.201C42.5571 3.201 42.2125 3.26333 41.8971 3.388C41.5818 3.51267 41.3105 3.68867 41.0831 3.916C40.8558 4.136 40.6798 4.40367 40.5551 4.719C40.4305 5.027 40.3681 5.368 40.3681 5.742C40.3681 6.12333 40.4195 6.47533 40.5221 6.798C40.6321 7.12067 40.7898 7.39567 40.9951 7.623C41.2078 7.85033 41.4681 8.03 41.7761 8.162C42.0841 8.28667 42.4361 8.349 42.8321 8.349C43.2135 8.349 43.5655 8.25367 43.8881 8.063C44.2108 7.865 44.4601 7.601 44.6361 7.271L44.6581 7.293C44.6288 8.31233 44.4711 9.07133 44.1851 9.57C43.8991 10.0613 43.4701 10.307 42.8981 10.307C42.5241 10.307 42.2015 10.2043 41.9301 9.999C41.6588 9.79367 41.5048 9.50033 41.4681 9.119ZM44.4931 5.808C44.4931 6.03533 44.4565 6.25533 44.3831 6.468C44.3098 6.67333 44.2035 6.85667 44.0641 7.018C43.9248 7.172 43.7561 7.29667 43.5581 7.392C43.3601 7.48 43.1401 7.524 42.8981 7.524C42.6708 7.524 42.4618 7.48 42.2711 7.392C42.0878 7.29667 41.9265 7.172 41.7871 7.018C41.6551 6.864 41.5488 6.688 41.4681 6.49C41.3948 6.292 41.3581 6.08667 41.3581 5.874C41.3581 5.632 41.3838 5.401 41.4351 5.181C41.4938 4.961 41.5818 4.76667 41.6991 4.598C41.8238 4.422 41.9815 4.28267 42.1721 4.18C42.3701 4.07733 42.6085 4.026 42.8871 4.026C43.1511 4.026 43.3821 4.07367 43.5801 4.169C43.7781 4.26433 43.9431 4.39633 44.0751 4.565C44.2145 4.72633 44.3171 4.91333 44.3831 5.126C44.4565 5.33867 44.4931 5.566 44.4931 5.808ZM47.9434 5.412C47.9434 5.24333 47.9544 5.06733 47.9764 4.884C47.9984 4.69333 48.0424 4.521 48.1084 4.367C48.1818 4.20567 48.2808 4.07367 48.4054 3.971C48.5301 3.861 48.6951 3.806 48.9004 3.806C49.1131 3.806 49.2781 3.861 49.3954 3.971C49.5201 4.07367 49.6154 4.20567 49.6814 4.367C49.7474 4.521 49.7878 4.69333 49.8024 4.884C49.8244 5.06733 49.8354 5.23967 49.8354 5.401C49.8354 5.56967 49.8244 5.74933 49.8024 5.94C49.7804 6.13067 49.7328 6.30667 49.6594 6.468C49.5934 6.622 49.4981 6.75033 49.3734 6.853C49.2488 6.95567 49.0801 7.007 48.8674 7.007C48.6621 7.007 48.4971 6.95567 48.3724 6.853C48.2551 6.743 48.1634 6.611 48.0974 6.457C48.0314 6.29567 47.9874 6.12333 47.9654 5.94C47.9508 5.74933 47.9434 5.57333 47.9434 5.412ZM47.1184 5.434C47.1184 5.73467 47.1478 6.017 47.2064 6.281C47.2724 6.545 47.3751 6.776 47.5144 6.974C47.6538 7.172 47.8371 7.32967 48.0644 7.447C48.2918 7.557 48.5704 7.612 48.9004 7.612C49.2231 7.612 49.4944 7.54967 49.7144 7.425C49.9344 7.30033 50.1141 7.139 50.2534 6.941C50.4001 6.73567 50.5028 6.501 50.5614 6.237C50.6274 5.96567 50.6604 5.687 50.6604 5.401C50.6604 5.10033 50.6311 4.818 50.5724 4.554C50.5211 4.28267 50.4258 4.048 50.2864 3.85C50.1544 3.652 49.9748 3.49433 49.7474 3.377C49.5274 3.25967 49.2451 3.201 48.9004 3.201C48.5631 3.201 48.2808 3.26333 48.0534 3.388C47.8261 3.50533 47.6428 3.66667 47.5034 3.872C47.3641 4.07733 47.2651 4.31567 47.2064 4.587C47.1478 4.851 47.1184 5.13333 47.1184 5.434ZM53.3774 8.932C53.3774 8.76333 53.3884 8.58733 53.4104 8.404C53.4324 8.21333 53.4764 8.041 53.5424 7.887C53.6158 7.72567 53.7148 7.59367 53.8394 7.491C53.9641 7.381 54.1291 7.326 54.3344 7.326C54.5471 7.326 54.7121 7.381 54.8294 7.491C54.9541 7.59367 55.0494 7.72567 55.1154 7.887C55.1814 8.041 55.2218 8.21333 55.2364 8.404C55.2584 8.58733 55.2694 8.75967 55.2694 8.921C55.2694 9.08967 55.2584 9.26933 55.2364 9.46C55.2144 9.65067 55.1668 9.82667 55.0934 9.988C55.0274 10.142 54.9321 10.2703 54.8074 10.373C54.6828 10.4757 54.5141 10.527 54.3014 10.527C54.0961 10.527 53.9311 10.4757 53.8064 10.373C53.6891 10.263 53.5974 10.131 53.5314 9.977C53.4654 9.81567 53.4214 9.64333 53.3994 9.46C53.3848 9.26933 53.3774 9.09333 53.3774 8.932ZM52.5524 8.954C52.5524 9.25467 52.5818 9.537 52.6404 9.801C52.7064 10.065 52.8091 10.296 52.9484 10.494C53.0878 10.6847 53.2711 10.8387 53.4984 10.956C53.7258 11.066 54.0044 11.121 54.3344 11.121C54.6571 11.121 54.9284 11.0623 55.1484 10.945C55.3684 10.8203 55.5481 10.659 55.6874 10.461C55.8341 10.2557 55.9368 10.021 55.9954 9.757C56.0614 9.48567 56.0944 9.207 56.0944 8.921C56.0944 8.62033 56.0651 8.338 56.0064 8.074C55.9551 7.80267 55.8598 7.568 55.7204 7.37C55.5884 7.172 55.4088 7.01433 55.1814 6.897C54.9614 6.77967 54.6791 6.721 54.3344 6.721C53.9971 6.721 53.7148 6.78333 53.4874 6.908C53.2601 7.02533 53.0768 7.18667 52.9374 7.392C52.7981 7.59733 52.6991 7.83567 52.6404 8.107C52.5818 8.371 52.5524 8.65333 52.5524 8.954ZM54.0924 3.058L48.1744 11.231H49.1204L55.0274 3.058H54.0924Z" fill="#50E3C2"/>
<path d="M3.60609 6.60609L2.69695 7.51523C2.36222 7.84996 1.81951 7.84996 1.48477 7.51523C1.15004 7.18049 1.15004 6.63778 1.48477 6.30305L2.39391 5.39391L0 3H6V9L3.60609 6.60609Z" fill="#50E3C2"/>
</svg>
